

<svg version="1.1" id="Layer_1" xmlns="http://www.w3.org/2000/svg" xmlns:xlink="http://www.w3.org/1999/xlink" x="0px" y="0px"
	 viewBox="0 0 1920 1920" style="enable-background:new 0 0 1920 1920;" xml:space="preserve">
<style type="text/css">
	.st0{fill:#FFC94A;}
	.st1{fill:#F6BD31;}
	.st2{font-family:'TimesNewRomanPSMT';}
	.st3{font-size:340px;}
	.st4{fill:none;}
</style>
<g>
	<path class="st0" d="M960,1891.2c-123.9,0-244-24.6-357.1-73.2c-109.2-46.9-207.4-114.1-291.6-199.6
		c-84.3-85.5-150.4-185.1-196.6-296c-47.8-114.8-72.1-236.8-72.1-362.5s24.3-247.7,72.1-362.5c46.2-110.9,112.4-210.5,196.6-296
		c84.3-85.5,182.4-152.7,291.6-199.6C716,53.1,836.1,28.5,960,28.5s244,24.6,357.1,73.2c109.2,46.9,207.4,114.1,291.6,199.6
		s150.4,185.1,196.6,296c47.8,114.8,72.1,236.8,72.1,362.5s-24.3,247.7-72.1,362.5c-46.2,110.9-112.4,210.5-196.6,296
		c-84.3,85.5-182.4,152.7-291.6,199.6C1204,1866.6,1083.9,1891.2,960,1891.2z"/>
</g>
<g>
	<path class="st1" d="M959.5,1747.5c-106.4,0-209.6-20.8-306.7-61.9c-93.8-39.7-178.1-96.5-250.5-168.9s-129.2-156.6-168.9-250.5
		c-41.1-97.2-61.9-200.3-61.9-306.7s20.8-209.6,61.9-306.7c39.7-93.8,96.5-178.1,168.9-250.5s156.6-129.2,250.5-168.9
		c97.2-41.1,200.3-61.9,306.7-61.9s209.6,20.8,306.7,61.9c93.8,39.7,178.1,96.5,250.5,168.9s129.2,156.6,168.9,250.5
		c41.1,97.2,61.9,200.3,61.9,306.7s-20.8,209.6-61.9,306.7c-39.7,93.8-96.5,178.1-168.9,250.5s-156.6,129.2-250.5,168.9
		C1169.1,1726.7,1065.9,1747.5,959.5,1747.5z"/>
</g>
<text transform="matrix(1 0 0 1 392.1837 1060.7738)" class="st2 st3">HEADS</text>
<polygon class="st4" points="1417,908 1432,908 1432,908 "/>
</svg>
